<svg width="32" height="32" viewBox="0 0 32 32" xmlns="http://www.w3.org/2000/svg">
<rect width="32" height="32" fill="#0f0f13" rx="6"/>
<g transform="translate(16,16)">
  <polygon points="0,-11 9.5,-5.5 9.5,5.5 0,11 -9.5,5.5 -9.5,-5.5" fill="none" stroke="#c8a97e" stroke-width="1.5"/>
  <polygon points="0,-6.5 5.6,-3.3 5.6,3.3 0,6.5 -5.6,3.3 -5.6,-3.3" fill="none" stroke="#c8a97e" stroke-width="0.6" opacity="0.4"/>
  <circle cx="0" cy="0" r="1.8" fill="#c8a97e"/>
  <line x1="0" y1="0" x2="0" y2="-6.5" stroke="#c8a97e" stroke-width="1" opacity="0.6"/>
  <line x1="0" y1="0" x2="5.6" y2="-3.3" stroke="#c8a97e" stroke-width="1" opacity="0.6"/>
  <line x1="0" y1="0" x2="5.6" y2="3.3" stroke="#c8a97e" stroke-width="1" opacity="0.6"/>
  <circle cx="0" cy="-11" r="1.5" fill="#c8a97e"/>
  <circle cx="9.5" cy="-5.5" r="1.2" fill="#c8a97e" opacity="0.6"/>
  <circle cx="9.5" cy="5.5" r="1.5" fill="#c8a97e"/>
  <circle cx="0" cy="11" r="1.2" fill="#c8a97e" opacity="0.6"/>
  <circle cx="-9.5" cy="5.5" r="1.5" fill="#c8a97e"/>
  <circle cx="-9.5" cy="-5.5" r="1.2" fill="#c8a97e" opacity="0.6"/>
</g>
</svg>
